{"title":"The.Rum.Diary.2011.BRRip.XviD.Ac3.Feel-Free","uid":6992931,"size":1537138506,"categoryP":"video","categoryS":"movies","magnet":"?xt=urn:btih:1e42e4ba753966df6549af564c35e78fa23965a7&amp;dn=The.Rum.Diary.2011.BRRip.XviD.Ac3.Feel-Free&amp;tr=udp%3A%2F%2Ftracker.openbittorrent.com%3A80&amp;tr=udp%3A%2F%2Fopen.demonii.com%3A1337&amp;tr=udp%3A%2F%2Ftracker.coppersurfer.tk%3A6969&amp;tr=udp%3A%2F%2Fexodus.desync.com%3A6969","seeders":0,"leechers":1,"uploader":".BONE.","files":7,"time":1327767772,"description":"Genre:Comedy | Drama | Romance\nLanguage:English\n &lt;a href=&quot;\nhttp://www.imdb.com/title/tt0376136/&quot; rel=&quot;nofollow&quot; target=&quot;_NEW&quot;&gt;\nhttp://www.imdb.com/title/tt0376136/&lt;/a&gt;\n\nSource:720p.BluRay.x264-SPARKS Thanks\nEncoder:Pitic\n\nFormat : AVI\nFormat/Info : Audio Video Interleave\nFile size : 1.43 GiB\nDuration : 1h 59mn\nOverall bit rate : 1 707 Kbps\n\nVideo\nID : 0\nFormat : MPEG-4 Visual\nFormat profile : Advanced Simple@L5\nFormat settings, BVOP : 1\nFormat settings, QPel : No\nFormat settings, GMC : No warppoints\nFormat settings, Matrix : Default (H.263)\nCodec ID : XVID\nCodec ID/Hint : XviD\nDuration : 1h 59mn\nBit rate : 1 250 Kbps\nWidth : 640 pixels\nHeight : 352 pixels\nDisplay aspect ratio : 16:9\nFrame rate : 23.976 fps\nColor space : YUV\nChroma subsampling : 4:2:0\nBit depth : 8 bits\nScan type : Progressive\nCompression mode : Lossy\nBits/(Pixel*Frame) : 0.231\nStream size : 1.05 GiB (73%)\nWriting library : XviD 1.2.1 (UTC 2008-12-04)\n\nAudio\nID : 1\nFormat : AC-3\nFormat/Info : Audio Coding 3\nMode extension : CM (complete main)\nCodec ID : 2000\nDuration : 1h 59mn\nBit rate mode : Constant\nBit rate : 448 Kbps\nChannel(s) : 6 channels\nChannel positions : Front: L C R, Side: L R, LFE\nSampling rate : 48.0 KHz\nBit depth : 16 bits\nCompression mode : Lossy\nStream size : 384 MiB (26%)\nAlignment : Aligned on interleaves\nInterleave, duration : 42 ms (1.00 video frame)\nInterleave, preload duration : 512 ms\n\n\nPlot:\nAmerican journalist Paul Kemp takes on a freelance job in Puerto Rico for a local newspaper during the 1950s and struggles to find a balance between island culture and the expatriates who live there.\n","torrent":{"xt":"urn:btih:1e42e4ba753966df6549af564c35e78fa23965a7","amp;dn":"The.Rum.Diary.2011.BRRip.XviD.Ac3.Feel-Free","amp;tr":["udp%3A%2F%2Ftracker.openbittorrent.com%3A80","udp%3A%2F%2Fopen.demonii.com%3A1337","udp%3A%2F%2Ftracker.coppersurfer.tk%3A6969","udp%3A%2F%2Fexodus.desync.com%3A6969"],"infoHash":"1e42e4ba753966df6549af564c35e78fa23965a7","infoHashBuffer":{"type":"Buffer","data":[30,66,228,186,117,57,102,223,101,73,175,86,76,53,231,143,162,57,101,167]},"announce":[],"urlList":[]}}